<svg preserveAspectRatio="none" width="100%" height="100%" overflow="visible" style="display: block;" viewBox="0 0 29.3333 18.6667" fill="none" xmlns="http://www.w3.org/2000/svg">
<g id="Group">
<path id="Vector" d="M20 10.6667L26.964 15.3093C27.1686 15.4455 27.4314 15.458 27.648 15.3421C27.8646 15.2261 27.9999 15.0004 28 14.7547V3.82667C28.0001 3.5879 27.8725 3.36733 27.6654 3.2484C27.4584 3.12947 27.2036 3.13033 26.9973 3.25067L20 7.33333" stroke="var(--stroke-0, white)" stroke-width="2.66667" stroke-linecap="round" stroke-linejoin="round"/>
<path id="Vector_2" d="M4 1.33333H17.3333C18.8051 1.33333 20 2.52823 20 4V14.6667C20 16.1384 18.8051 17.3333 17.3333 17.3333H4C2.52823 17.3333 1.33333 16.1384 1.33333 14.6667V4C1.33333 2.52823 2.52823 1.33333 4 1.33333V1.33333" stroke="var(--stroke-0, white)" stroke-width="2.66667" stroke-linecap="round" stroke-linejoin="round"/>
</g>
</svg>
