<svg preserveAspectRatio="none" width="100%" height="100%" overflow="visible" style="display: block;" viewBox="0 0 25.3333 26.6667" fill="none" xmlns="http://www.w3.org/2000/svg">
<g id="Group">
<path id="Vector" d="M1.33333 5.33333C1.33333 7.54099 3.12567 9.33333 5.33333 9.33333C7.54099 9.33333 9.33333 7.54099 9.33333 5.33333C9.33333 3.12567 7.54099 1.33333 5.33333 1.33333C3.12567 1.33333 1.33333 3.12567 1.33333 5.33333H1.33333" stroke="var(--stroke-0, white)" stroke-width="2.66667" stroke-linecap="round" stroke-linejoin="round"/>
<path id="Vector_2" d="M8.16 8.16L13.3333 13.3333M24 2.66667L8.16 18.5067" stroke="var(--stroke-0, white)" stroke-width="2.66667" stroke-linecap="round" stroke-linejoin="round"/>
<path id="Vector_3" d="M1.33333 21.3333C1.33333 23.541 3.12567 25.3333 5.33333 25.3333C7.54099 25.3333 9.33333 23.541 9.33333 21.3333C9.33333 19.1257 7.54099 17.3333 5.33333 17.3333C3.12567 17.3333 1.33333 19.1257 1.33333 21.3333H1.33333" stroke="var(--stroke-0, white)" stroke-width="2.66667" stroke-linecap="round" stroke-linejoin="round"/>
<path id="Vector_4" d="M17.0667 17.0667L24 24" stroke="var(--stroke-0, white)" stroke-width="2.66667" stroke-linecap="round" stroke-linejoin="round"/>
</g>
</svg>
